<svg xmlns="http://www.w3.org/2000/svg" width="150" height="100" viewBox="0 0 150 100"><rect width="100%" height="100%" fill="#87CEEB"/><path fill="#FFF" d="M52.53 57.88q.44 0 .78.34l2.12 2.3q-1.76 2.18-4.33 3.34t-6.17 1.16q-3.22 0-5.79-1.1t-4.39-3.06-2.79-4.68-.97-5.94q0-3.26 1.04-5.97t2.93-4.67 4.51-3.05 5.8-1.09q3.16 0 5.61 1.04t4.17 2.72l-1.8 2.5q-.16.24-.41.42t-.69.18q-.3 0-.62-.17t-.7-.42-.88-.55-1.16-.55-1.53-.42-2.01-.17q-1.94 0-3.55.69t-2.77 2-1.8 3.2-.64 4.31q0 2.44.69 4.34t1.87 3.2 2.78 1.99 3.44.69q1.1 0 1.99-.12t1.64-.38 1.42-.67 1.33-1.01q.2-.18.42-.29t.46-.11m5.98-13.7h4.96V64.7h-4.96zm5.64-5.98q0 .64-.26 1.2t-.69.98-1.01.67-1.24.25q-.64 0-1.21-.25t-.99-.67-.67-.98-.25-1.2q0-.66.25-1.24t.67-1 .99-.67 1.21-.25q.66 0 1.24.25t1.01.67.69 1 .26 1.24m8.26 13.88h9.32q0-.96-.27-1.81t-.81-1.49-1.37-1.01-1.93-.37q-2.14 0-3.37 1.22t-1.57 3.46m12.6 2.98h-12.7q.12 1.58.56 2.73t1.16 1.9 1.71 1.12 2.19.37T80 60.9t1.52-.62 1.14-.62.95-.28q.62 0 .92.46l1.42 1.8q-.82.96-1.84 1.61t-2.13 1.04-2.26.55-2.23.16q-2.14 0-3.98-.71t-3.2-2.1-2.14-3.44-.78-4.75q0-2.1.68-3.95t1.95-3.22 3.1-2.17 4.13-.8q1.94 0 3.58.62t2.82 1.81 1.85 2.92.67 3.95q0 1.12-.24 1.51t-.92.39m4.92-20.08h4.94V64.7h-4.94zm18.96 8.88q2.28 0 4.15.74t3.2 2.1 2.05 3.32.72 4.38q0 2.44-.72 4.4t-2.05 3.34-3.2 2.12-4.15.74q-2.3 0-4.18-.74t-3.21-2.12-2.06-3.34-.73-4.4q0-2.42.73-4.38t2.06-3.32 3.21-2.1 4.18-.74m0 17.34q2.56 0 3.79-1.72t1.23-5.04-1.23-5.06-3.79-1.74q-2.6 0-3.85 1.75t-1.25 5.05 1.25 5.03 3.85 1.73"/></svg>