<svg xmlns="http://www.w3.org/2000/svg" width="180" height="80" viewBox="0 0 180 80"><rect width="100%" height="100%"/><path fill="#FFF" d="M37.27 25.54h19.98v2.14q0 .96-.2 1.55t-.4.99L45.69 52.78q-.34.7-.96 1.19t-1.66.49h-3.58l11.18-22.1q.38-.68.75-1.25t.83-1.09H38.41q-.46 0-.8-.34t-.34-.8zm35.08 18.12 7.02 10.8h-4.76q-.54 0-.87-.28t-.55-.64l-4.34-7.14q-.1.34-.23.64t-.29.56l-3.84 5.94q-.22.34-.54.63t-.8.29h-4.42l7.04-10.58-6.76-9.94h4.76q.54 0 .8.15t.46.49l4.3 6.84q.22-.68.62-1.34l3.46-5.4q.44-.74 1.14-.74h4.54zm18.74 7.26q1.22 0 2.14-.35t1.55-.97.95-1.48.32-1.86q0-2.38-1.32-3.6t-3.64-1.22-3.64 1.22-1.32 3.6q0 1 .32 1.86t.95 1.48 1.55.97 2.14.35m0-21.98q-1.1 0-1.9.34t-1.33.91-.78 1.31-.25 1.56q0 .86.21 1.67t.71 1.44 1.32 1.01 2.02.38 2.02-.38 1.32-1.01.71-1.44.21-1.67q0-.82-.26-1.56t-.78-1.31-1.32-.91-1.9-.34m4.88 10.44q2.64.86 3.9 2.63t1.26 4.33q0 1.92-.73 3.48t-2.05 2.66-3.17 1.7-4.09.6-4.09-.6-3.17-1.7-2.05-2.66-.73-3.48q0-2.56 1.26-4.33t3.9-2.63q-2.1-.88-3.15-2.5t-1.05-3.9q0-1.64.67-3.06t1.87-2.47 2.87-1.64 3.67-.59 3.67.59 2.87 1.64 1.87 2.47.67 3.06q0 2.28-1.05 3.9t-3.15 2.5m9.46 7V42.7h17.72v3.68zm0-7.06v-3.66h17.72v3.66zm23.18-9.1-1.3-2.06q.68-.6 1.49-1.14t1.75-.94 2.04-.63 2.38-.23q1.74 0 3.17.48t2.45 1.37 1.58 2.15.56 2.82q0 1.52-.44 2.63t-1.1 1.93-1.45 1.42l-1.49 1.13q-.7.53-1.21 1.04t-.61 1.15l-.46 2.92h-3.38l-.34-3.26q-.12-.94.27-1.65t1.04-1.3 1.45-1.14 1.5-1.2 1.17-1.46.47-1.93q0-.72-.27-1.29t-.75-.98-1.15-.63-1.45-.22q-1.14 0-1.93.25t-1.34.56-.93.56-.68.25q-.72 0-1.04-.6m2.48 21.52q0-.62.23-1.18t.63-.96.96-.64 1.2-.24 1.19.24.96.64.65.96.24 1.18q0 .64-.24 1.19t-.65.95-.96.63-1.19.23-1.2-.23-.96-.63-.63-.95-.23-1.19"/></svg>