<svg xmlns="http://www.w3.org/2000/svg" width="150" height="100" viewBox="0 0 150 100"><rect width="100%" height="100%"/><path fill="#FFF" d="M35.125 50.19h2.72q.99 0 1.74-.25.74-.25 1.23-.71.5-.47.74-1.14.24-.66.24-1.49 0-.78-.24-1.41-.24-.64-.73-1.08-.49-.45-1.23-.69-.74-.23-1.75-.23h-2.72zm-3.63-9.81h6.35q1.95 0 3.38.46 1.44.46 2.37 1.28t1.38 1.97.45 2.51q0 1.42-.47 2.6t-1.42 2.03q-.94.85-2.37 1.33-1.42.47-3.32.47h-2.72v6.87h-3.63zm16.3 5.67h3.34V59.9h-3.34zm3.8-4.04q0 .43-.17.81-.18.38-.47.66-.29.29-.68.46t-.84.17q-.43 0-.81-.17-.39-.17-.67-.46-.29-.28-.46-.66-.16-.38-.16-.81 0-.44.16-.83.17-.4.46-.68.28-.28.67-.45.38-.17.81-.17.45 0 .84.17t.68.45.47.68q.17.39.17.83m10.26 14.31v-2.33q-1.44.06-2.43.25-.98.18-1.58.46-.59.29-.85.66-.25.38-.25.83 0 .88.52 1.25.52.38 1.35.38 1.03 0 1.78-.37t1.46-1.13m-7.04-7.27-.6-1.07q2.39-2.19 5.75-2.19 1.22 0 2.18.4.95.4 1.62 1.11.66.71 1 1.69.35.99.35 2.16v8.75h-1.52q-.47 0-.73-.14-.25-.14-.4-.58l-.3-.99q-.52.47-1.02.83-.5.35-1.04.6-.54.24-1.16.37-.61.13-1.35.13-.88 0-1.62-.24-.75-.24-1.29-.71t-.83-1.17q-.3-.71-.3-1.64 0-.52.18-1.04.17-.52.57-1 .4-.47 1.03-.89.64-.41 1.56-.73.93-.31 2.15-.5 1.23-.2 2.81-.24v-.81q0-1.39-.59-2.06-.6-.66-1.72-.66-.81 0-1.34.18-.53.19-.94.43-.4.24-.73.42-.33.19-.74.19-.35 0-.59-.18-.25-.18-.39-.42m16.32-2.39.23 1.09q.41-.42.88-.78.47-.35.99-.6t1.11-.4q.59-.14 1.3-.14 1.13 0 2.01.39.87.38 1.46 1.08.59.69.89 1.66.31.96.31 2.12v8.82h-3.34v-8.82q0-1.26-.58-1.96-.58-.69-1.77-.69-.86 0-1.62.39-.75.39-1.43 1.06V59.9h-3.33V46.05h2.04q.64 0 .85.61m14.97 4.72h6.29q0-.65-.18-1.22-.19-.57-.55-1.01-.36-.43-.92-.68t-1.31-.25q-1.44 0-2.27.83-.83.82-1.06 2.33m8.5 2.01h-8.57q.08 1.07.38 1.85.3.77.78 1.28.49.5 1.16.75.66.25 1.47.25t1.4-.18q.59-.19 1.03-.42t.77-.42.64-.19q.42 0 .62.31l.96 1.21q-.56.65-1.24 1.09-.69.44-1.44.7-.75.27-1.53.37-.77.11-1.5.11-1.45 0-2.69-.48t-2.16-1.41q-.92-.94-1.44-2.33-.53-1.38-.53-3.2 0-1.42.46-2.67t1.31-2.17q.86-.93 2.1-1.47 1.23-.54 2.79-.54 1.3 0 2.41.42t1.91 1.22q.79.81 1.24 1.97.46 1.17.46 2.67 0 .76-.17 1.02-.16.26-.62.26m7.9 6.73q-1.81 0-2.77-1.02-.97-1.02-.97-2.82v-7.73h-1.42q-.27 0-.46-.18-.18-.17-.18-.53v-1.32l2.22-.36.71-3.78q.06-.27.25-.42t.49-.15h1.73v4.36h3.69v2.38h-3.69v7.5q0 .65.31 1.02.32.36.87.36.31 0 .52-.07.21-.08.37-.16.15-.08.27-.16.13-.07.25-.07.15 0 .24.07.1.08.2.23l1 1.62q-.73.61-1.67.92-.95.31-1.96.31m12.74-3.8v-2.33q-1.44.06-2.43.25-.98.18-1.57.46-.6.29-.86.66-.25.38-.25.83 0 .88.52 1.25.52.38 1.35.38 1.03 0 1.78-.37t1.46-1.13m-7.04-7.27-.6-1.07q2.39-2.19 5.75-2.19 1.22 0 2.18.4t1.62 1.11 1 1.69q.35.99.35 2.16v8.75h-1.51q-.48 0-.73-.14-.26-.14-.41-.58l-.29-.99q-.53.47-1.03.83-.5.35-1.04.6-.54.24-1.15.37-.62.13-1.36.13-.88 0-1.62-.24t-1.28-.71-.84-1.17q-.3-.71-.3-1.64 0-.52.18-1.04.17-.52.57-1 .4-.47 1.03-.89.64-.41 1.56-.73.93-.31 2.16-.5 1.23-.2 2.8-.24v-.81q0-1.39-.59-2.06-.59-.66-1.71-.66-.81 0-1.35.18-.53.19-.94.43-.4.24-.73.42-.33.19-.74.19-.35 0-.59-.18t-.39-.42"/></svg>